<?xml version="1.0" encoding="utf-8"?>
<!-- Generator: Adobe Illustrator 23.0.3, SVG Export Plug-In . SVG Version: 6.00 Build 0)  -->
<svg version="1.1" id="Capa_1" xmlns="http://www.w3.org/2000/svg" xmlns:xlink="http://www.w3.org/1999/xlink" x="0px" y="0px"
	 viewBox="0 0 290.3 290.3" style="enable-background:new 0 0 290.3 290.3;" xml:space="preserve">
<style type="text/css">
	.st0{fill:#FFFFFF;}
</style>
<g>
	<path class="st0" d="M260.2,32.2c0-7.7-11-14-24.6-14h-51.7c0,0,0-4.1,0-9.1c0-5-11-9.1-24.6-9.1h-21.8c-13.6,0-24.6,4.1-24.6,9.1
		v9.1H54.7c-13.6,0-24.6,6.3-24.6,14v14h230.1C260.2,46.2,260.2,40,260.2,32.2z"/>
	<path class="st0" d="M69.7,290.3h150.8c13.6,0,24.6-11,24.6-24.6V57h-200v208.7C45.2,279.2,56.2,290.3,69.7,290.3z M196.4,87H221
		v167h-24.6V87z M132.8,87h24.6v167h-24.6L132.8,87L132.8,87z M69.2,87h24.6v167H69.2V87z"/>
</g>
</svg>
